# xmcd
#
# Track frame offsets:
#	150
#	20298
#	40586
#	60752
#	81017
#	96861
#	121929
#	140545
#	157915
#	176580
#	197858
#
# Disc length: 2958 seconds
# Revision: 2
# Processed by: cddbd v1.5.2PL0 Copyright (c) Steve Scherf et al.
# Submitted via: dBpowerAMP V12.0
#
DISCID=7e0b8c0b
DTITLE=Rodney Crowell - Sex and Gasoline
DYEAR=2008
DGENRE=Country
TTITLE0=Sex and Gasoline
TTITLE1=Moving Work of Art
TTITLE2=The Rise and Fall of Intelligent Design
TTITLE3=Truth Decay
TTITLE4=I Want You #35
TTITLE5=I've Done Everything I Can
TTITLE6=Who Do You Trust
TTITLE7=The Night's Just Right
TTITLE8=Funky and the Farm-Boy
TTITLE9=Forty Winters
TTITLE10=Closer to Heaven
EXTD=
EXTT0=
EXTT1=
EXTT2=
EXTT3=
EXTT4=
EXTT5=
EXTT6=
EXTT7=
EXTT8=
EXTT9=
EXTT10=
PLAYORDER=
